PathFileType	4	(X/Y/Z)	CPRIT_Patient3_L_HipIso_Processed.TRC
DataRate	CameraRate	NumFrames	NumMarkers	Units	OrigDataRate	OrigDataStartFrame	OrigNumFrames
150.114591291062	150.114591291062	6	39	m	150.114591291062	820	       1311
Frame#	Time	R.Heel			R.Midfoot.Superior			R.Midfoot.Lateral			R.Toe			L.Heel			L.Midfoot.Superior			L.Midfoot.Lateral			L.Toe			R.Shank.Superior			R.Shank.Inferior			R.Shank.Lateral			R.Shank.Posterior			L.Shank.Superior			L.Shank.Inferior			L.Shank.Posterior			L.Shank.Lateral			R.Patella			L.Patella			R.Thigh.Superior			R.Thigh.Lateral			R.Thigh.Inferior			L.Thigh.Superior			L.Thigh.Inferior			L.Thigh.Lateral			L.Asis			R.Asis			Sacral			R.Shoulder			L.Shoulder			C7			J.Notch			Sternum			Thoracic			L.Elbow			L.Wrist			R.Elbow			R.Wrist			R.PSIS			L.PSIS			
		X1	Y1	Z1	X2	Y2	Z2	X3	Y3	Z3	X4	Y4	Z4	X5	Y5	Z5	X6	Y6	Z6	X7	Y7	Z7	X8	Y8	Z8	X9	Y9	Z9	X10	Y10	Z10	X11	Y11	Z11	X12	Y12	Z12	X13	Y13	Z13	X14	Y14	Z14	X15	Y15	Z15	X16	Y16	Z16	X17	Y17	Z17	X18	Y18	Z18	X19	Y19	Z19	X20	Y20	Z20	X21	Y21	Z21	X22	Y22	Z22	X23	Y23	Z23	X24	Y24	Z24	X25	Y25	Z25	X26	Y26	Z26	X27	Y27	Z27	X28	Y28	Z28	X29	Y29	Z29	X30	Y30	Z30	X31	Y31	Z31	X32	Y32	Z32	X33	Y33	Z33	X34	Y34	Z34	X35	Y35	Z35	X36	Y36	Z36	X37	Y37	Z37	X38	Y38	Z38	X39	Y39	Z39	

820	5.455832061069	0.872779186300	0.049097662628	0.147364055605	1.041458279869	0.099454650772	0.133035718103	0.958082753398	0.037647392948	0.190315606105	1.158557988751	0.056802393562	0.120343665529	1.204186917664	0.162429916598	-0.241659055583	1.300532136332	0.295480789547	-0.313322894131	1.242796781904	0.192289260474	-0.326435605936	1.405924678487	0.319945475073	-0.373012511015	0.995729281508	0.362643287602	0.164102763546	0.991244187391	0.241888788422	0.160791305280	0.933417930087	0.293511866733	0.230789701342	0.858778405420	0.354206944775	0.188612232067	1.157055258624	0.516552889937	-0.231493025217	1.201995978844	0.397653629865	-0.255003795034	1.051469024348	0.427796297550	-0.189084795217	1.112960075670	0.412985741842	-0.274958661221	1.013230600878	0.474338042433	0.137076404180	1.129927280807	0.629578049249	-0.199556175940	1.063450902763	0.781114352625	0.129891386788	0.999669195140	0.712249342595	0.216220799276	1.041320601233	0.621616147162	0.116154084161	0.991572905737	0.883020521383	-0.127796732543	1.068814178750	0.758029129157	-0.158270514766	0.931953295445	0.787604677977	-0.175598184444	0.931691968113	0.975318232965	-0.082677969693	1.047517737845	0.939312184921	0.125651827132	0.833021289722	1.003120730968	0.121145110349	1.053522111345	1.449477814228	0.196389888851	0.937166192848	1.428385802855	-0.112831600008	0.951862703492	1.484666344385	0.067580377263	1.053533840997	1.373658086949	0.020656193949	1.078268801001	1.190130187735	-0.000537573524	0.859489849086	1.344368964632	0.116459631557	0.867933003396	1.158801391978	-0.273229642350	0.960998649360	0.988451579330	-0.436523484186	0.977565039985	1.214569039947	0.428640869838	1.089763048370	0.988273340102	0.423872034658	0.852152521544	1.000797156151	0.149133153494	0.812859775131	1.006172417725	0.082063452732	
821	5.462493638677	0.872788285175	0.049091078927	0.147377676767	1.041451811151	0.099460014980	0.133058280480	0.958080312196	0.037641003204	0.190322993931	1.158548767565	0.056819386972	0.120351202789	1.194811092510	0.157012123955	-0.236608385392	1.292932806194	0.288393424441	-0.308936238852	1.233924005973	0.185841395644	-0.321497378617	1.398707472167	0.311144871067	-0.368610298755	0.995530412316	0.362651250297	0.164257359285	0.991127877960	0.241898133511	0.160891285594	0.933312553535	0.293464942460	0.230954250383	0.858623650475	0.354146101436	0.188847515293	1.152325433942	0.511768050142	-0.228676945043	1.195751242399	0.392132602852	-0.251352139282	1.045531884694	0.424641676892	-0.185924129619	1.107002117388	0.408510780863	-0.271563720185	1.012995503259	0.474222964956	0.137191353953	1.126625714128	0.625339942752	-0.197449510684	1.063344047923	0.780830324900	0.129880709144	0.999612715206	0.712198478455	0.216407573651	1.041071635980	0.621440002927	0.116283280185	0.991018838457	0.881153522999	-0.127388414339	1.067064552397	0.754873680564	-0.157011011309	0.930599984273	0.786012562724	-0.174585002020	0.931724537260	0.974864133795	-0.082821538393	1.047733118220	0.938964508326	0.125425635547	0.833406522836	1.003602929810	0.121106958712	1.053710181710	1.449480436652	0.196371420274	0.937509200764	1.428459686802	-0.112918595287	0.952134725711	1.484675949715	0.067524611210	1.053870064888	1.373749723282	0.020611558831	1.078733704077	1.190152542255	-0.000693692983	0.859848271800	1.344288181877	0.116302984264	0.868062289003	1.158871798069	-0.273239519390	0.960999307225	0.988452312509	-0.436522291094	0.977561780481	1.214579353502	0.428547578365	1.089771244242	0.988274264077	0.423854165597	0.852604774497	1.001254220022	0.149057745858	0.813266105394	1.006627641968	0.082051056138	
822	5.469155216285	0.872798216442	0.049084366294	0.147392011372	1.041445642784	0.099465210976	0.133079736463	0.958077959423	0.037634642454	0.190330402720	1.158539850821	0.056836115017	0.120357909422	1.185300487631	0.151698095308	-0.231502200860	1.285192281864	0.281379616823	-0.304481013995	1.224913015073	0.179490689301	-0.316495847314	1.391332172091	0.302405507933	-0.364123862062	0.995338440172	0.362659112397	0.164402135989	0.991014181441	0.241906652423	0.160982967358	0.933216690252	0.293421037003	0.231114186374	0.858478241099	0.354089005107	0.189081203205	1.147508232847	0.507026196643	-0.225820916053	1.189396227144	0.386671643983	-0.247650159231	1.039516033349	0.421560696153	-0.182735807026	1.100950903324	0.404100796798	-0.268129639870	1.012767203240	0.474111316037	0.137295276165	1.123254861714	0.621128245789	-0.195309325943	1.063239253476	0.780548026746	0.129859351721	0.999569112194	0.712150009306	0.216580202961	1.040830213263	0.621267895101	0.116392287685	0.990436263246	0.879291673341	-0.126983464323	1.065264432992	0.751729958931	-0.155736058211	0.929214807834	0.784428932727	-0.173564703209	0.931746189220	0.974399390023	-0.082973387180	1.047954130579	0.938615030986	0.125182938578	0.833800070152	1.004084730989	0.121063470238	1.053907105624	1.449479917516	0.196346001133	0.937854781063	1.428533934472	-0.113007740046	0.952412140511	1.484684154342	0.067465067269	1.054211160055	1.373840515611	0.020559102280	1.079201234121	1.190172458202	-0.000862156019	0.860214493153	1.344206831615	0.116144252212	0.868189123869	1.158940150626	-0.273246191549	0.960997692774	0.988452772452	-0.436519465368	0.977566536934	1.214592892529	0.428450133214	1.089780224576	0.988275278788	0.423835534912	0.853066914778	1.001712063827	0.148977086654	0.813678285866	1.007080566530	0.082034763266	
823	5.475816793893	0.872808910528	0.049077565239	0.147406990680	1.041439774111	0.099470191280	0.133099983429	0.958075708146	0.037628336938	0.190337801653	1.158531296243	0.056852501282	0.120363728363	1.175667313879	0.146497040432	-0.226347578070	1.277318291646	0.274451516319	-0.299964429867	1.215773783049	0.173248039581	-0.311438336438	1.383805063113	0.293742845486	-0.359561905267	0.995154460692	0.362666794777	0.164536593409	0.990903914297	0.241914311451	0.161066115694	0.933131122626	0.293380111013	0.231269102941	0.858343087495	0.354035781990	0.189312885011	1.142607960519	0.502334410562	-0.222929279068	1.182937240808	0.381279670255	-0.243903720093	1.033428433987	0.418558201461	-0.179523883507	1.094812297805	0.399762589225	-0.264661222029	1.012546679977	0.474003386078	0.137387820540	1.119817391496	0.616948927672	-0.193139394730	1.063136785103	0.780268127762	0.129827358189	0.999538925484	0.712103930074	0.216738409166	1.040596913970	0.621100376752	0.116480336850	0.989824618977	0.877436801413	-0.126583562431	1.063414137747	0.748601820288	-0.154448516324	0.927797117559	0.782854926144	-0.172538402481	0.931755770427	0.973924494986	-0.083132871372	1.048179896366	0.938264457013	0.124924205628	0.834201127383	1.004564923395	0.121015233470	1.054113665535	1.449476223847	0.196313049689	0.938202428153	1.428608422798	-0.113099151230	0.952695027536	1.484691029918	0.067401534698	1.054556754598	1.373930102013	0.020498373039	1.079670144486	1.190189617364	-0.001043055142	0.860588534810	1.344125329350	0.115983354619	0.868313098717	1.159006262486	-0.273249675288	0.960993753484	0.988452951081	-0.436515010637	0.977580394431	1.214610049103	0.428348578659	1.089790078477	0.988276378879	0.423816184806	0.853537945216	1.002169657320	0.148891965262	0.814094915183	1.007530101804	0.082015169915	
824	5.482478371501	0.872820278131	0.049070721142	0.147422530411	1.041434199706	0.099474905733	0.133118926439	0.958073571257	0.037622112102	0.190345158558	1.158523151670	0.056868470936	0.120368612449	1.165924284046	0.141417543590	-0.221151741700	1.269319025944	0.267620817296	-0.295394031934	1.206516722760	0.167123757240	-0.306332421209	1.376132931021	0.285171970295	-0.354933666887	0.994979490192	0.362674221037	0.164660309221	0.990797864221	0.241921090048	0.161140581366	0.933056516985	0.293342092359	0.231418620296	0.858218996422	0.353986516684	0.189542141284	1.137629164147	0.497699462408	-0.220006577190	1.176380940588	0.375965193762	-0.240118887505	1.027276283089	0.415638581369	-0.176292439521	1.088592410867	0.395502541084	-0.261163387531	1.012334826405	0.473899426949	0.137468713680	1.116316121904	0.612807717494	-0.190943669774	1.063036878839	0.779991259956	0.129784836215	0.999522555919	0.712060212093	0.216882019807	1.040372230115	0.620937956764	0.116546880147	0.989183424499	0.875590581559	-0.126190427943	1.061514127237	0.745492949084	-0.153151401236	0.926346262488	0.781291585331	-0.171507211432	0.931752219645	0.973439980326	-0.083299316528	1.048409520118	0.937913463183	0.124649987489	0.834608847627	1.005042295441	0.120962847643	1.054330638681	1.449469347545	0.196271998796	0.938551616478	1.428683033798	-0.113192946787	0.952983458500	1.484696647877	0.067333811146	1.054906459669	1.374018095348	0.020428958138	1.080139174325	1.190203681657	-0.001236394093	0.860970416131	1.344044074356	0.115820148863	0.868433827701	1.159069970921	-0.273250017449	0.960987453573	0.988452844506	-0.436508952796	0.977604421203	1.214631207653	0.428242975577	1.089800883319	0.988277559095	0.423796166020	0.854016817847	1.002625966013	0.148803187282	0.814514584481	1.007975164721	0.081992875662	
825	5.489139949109	0.872832210226	0.049063884118	0.147438530892	1.041428909618	0.099479302159	0.133136477986	0.958071561366	0.037615992801	0.190352440351	1.158515453673	0.056883951693	0.120372524950	1.156084532123	0.136467528547	-0.215922021484	1.261203094780	0.260898698217	-0.290777654101	1.197152626200	0.161127519374	-0.301185880411	1.368323030358	0.276707503689	-0.350248848495	0.994814458212	0.362681318064	0.164772938311	0.990696776600	0.241926977317	0.161206292350	0.932993423668	0.293306877971	0.231562388747	0.858106667541	0.353941251415	0.189768552654	1.132576610775	0.493127791926	-0.217057538727	1.169734299836	0.370736285391	-0.236301889415	1.021066970650	0.412805762562	-0.173045558918	1.082297568127	0.391326603077	-0.257641148848	1.012132444462	0.473799653774	0.137537760420	1.112754004014	0.608710090400	-0.188726258440	1.062939739285	0.779718015681	0.129731952986	0.999520266722	0.712018804175	0.217010963450	1.040156561724	0.620781094547	0.116591593684	0.988512272036	0.873754533503	-0.125805797349	1.059565004680	0.742406855809	-0.151847864601	0.924861594545	0.779739864749	-0.170472236697	0.931734581557	0.972946423196	-0.083472027764	1.048642093996	0.937562692083	0.124360910606	0.835022344149	1.005515649926	0.120906913978	1.054558782268	1.449459307726	0.196222306337	0.938901802417	1.428757655160	-0.113289242414	0.953277491995	1.484701079434	0.067261706918	1.055259870833	1.374104089413	0.020350490449	1.080607062343	1.190214301186	-0.001442083569	0.861360151309	1.343963446371	0.115654430131	0.868550950470	1.159131137548	-0.273247291615	0.960978773870	0.988452452258	-0.436501338297	0.977639653956	1.214656737791	0.428133394841	1.089812701801	0.988278815202	0.423775537759	0.854502440166	1.003079961852	0.148711562991	0.814935889293	1.008414693294	0.081968474783	
